<?xml version="1.0" encoding="iso-8859-1"?>
<!-- Generator: Adobe Illustrator 19.0.0, SVG Export Plug-In . SVG Version: 6.00 Build 0)  -->
<svg xmlns="http://www.w3.org/2000/svg" xmlns:xlink="http://www.w3.org/1999/xlink" version="1.1" id="Capa_1" x="0px" y="0px" viewBox="0 0 511.826 511.826" style="enable-background:new 0 0 511.826 511.826;" xml:space="preserve" width="512px" height="512px">
<g>
	<g>
		<path d="M121.029,311.382c-1.586-1.554-4.116-1.507-5.655,0.062c-3.046,3.117-7.107,4.827-11.45,4.827    c-8.826,0-15.996-7.178-15.996-15.996s7.17-15.996,15.996-15.996c2.21,0,3.999-1.788,3.999-3.999s-1.789-3.999-3.999-3.999    c-13.231,0-23.994,10.763-23.994,23.994c0,13.231,10.763,23.995,23.994,23.995c6.514,0,12.614-2.57,17.167-7.233    C122.638,315.46,122.607,312.921,121.029,311.382z" fill="#FFFFFF"/>
	</g>
</g>
<g>
	<g>
		<path d="M407.851,196.281c-8.396,0-16.746,1.003-24.814,2.98c-2.149,0.526-3.461,2.694-2.938,4.838    c0.531,2.148,2.719,3.456,4.843,2.933c7.443-1.828,15.152-2.753,22.909-2.753c52.916,0,95.977,43.056,95.977,95.98    c0,52.925-43.061,95.978-95.977,95.978c-52.926,0-95.978-43.053-95.978-95.978c0-35.835,19.745-68.44,51.526-85.081    c1.961-1.023,2.711-3.44,1.688-5.397c-1.023-1.953-3.429-2.714-5.397-1.687c-34.428,18.023-55.815,53.334-55.815,92.165    c0,57.33,46.638,103.976,103.977,103.976c57.331,0,103.975-46.645,103.974-103.975    C511.826,242.922,465.181,196.281,407.851,196.281z" fill="#FFFFFF"/>
	</g>
</g>
<g>
	<g>
		<path d="M414.553,277.218c-2.164-0.64-4.343,0.602-4.96,2.726c-0.617,2.125,0.602,4.343,2.726,4.96    c6.788,1.967,11.529,8.287,11.529,15.355c0,8.818-7.179,15.996-15.996,15.996c-8.826,0-15.997-7.178-15.997-15.996    c0-3.053,0.859-6.013,2.484-8.568c1.186-1.866,0.631-4.334-1.227-5.522c-1.866-1.17-4.342-0.624-5.522,1.227    c-2.444,3.843-3.733,8.287-3.733,12.864c0,13.231,10.763,23.995,23.995,23.995c13.231,0,23.995-10.764,23.994-23.996    C431.846,289.653,424.73,280.178,414.553,277.218z" fill="#FFFFFF"/>
	</g>
</g>
<g>
	<g>
		<path d="M190.356,189.142c-1.742-1.359-4.249-1.035-5.608,0.699l-83.98,107.982c-1.359,1.741-1.047,4.256,0.695,5.607    c0.735,0.571,1.601,0.844,2.453,0.844c1.195,0,2.374-0.531,3.163-1.547l83.98-107.973    C192.418,193.008,192.098,190.497,190.356,189.142z" fill="#FFFFFF"/>
	</g>
</g>
<g>
	<g>
		<path d="M411.592,298.847l-67.983-179.946c-0.781-2.065-3.093-3.108-5.155-2.327c-2.069,0.781-3.108,3.089-2.327,5.155    l67.983,179.945c0.601,1.601,2.125,2.585,3.742,2.585c0.468,0,0.945-0.086,1.413-0.258    C411.326,303.22,412.373,300.916,411.592,298.847z" fill="#FFFFFF"/>
	</g>
</g>
<g>
	<g>
		<path d="M354.278,149.05c-1.788-1.266-4.287-0.863-5.576,0.937l-93.041,130.512c-1.281,1.797-0.867,4.296,0.938,5.577    c0.703,0.499,1.507,0.741,2.312,0.741c1.249,0,2.483-0.586,3.265-1.678l93.04-130.512    C356.497,152.83,356.075,150.331,354.278,149.05z" fill="#FFFFFF"/>
	</g>
</g>
<g>
	<g>
		<path d="M219.795,274.37l-48.106-139.362c-0.718-2.089-3.022-3.195-5.084-2.476c-2.094,0.722-3.195,2.999-2.476,5.084    l48.106,139.361c0.57,1.655,2.124,2.694,3.78,2.694c0.437,0,0.875-0.07,1.304-0.217    C219.412,278.735,220.522,276.455,219.795,274.37z" fill="#FFFFFF"/>
	</g>
</g>
<g>
	<g>
		<path d="M355.841,151.359c-0.523-2.148-2.671-3.48-4.835-2.937l-164.055,39.99c-2.14,0.523-3.46,2.688-2.937,4.835    c0.445,1.828,2.085,3.05,3.882,3.05c0.312,0,0.633-0.035,0.953-0.112l164.055-39.991    C355.052,155.671,356.364,153.507,355.841,151.359z" fill="#FFFFFF"/>
	</g>
</g>
<g>
	<g>
		<path d="M375.734,111.348c-0.531-2.144-2.718-3.46-4.843-2.909l-31.992,7.998c-2.148,0.534-3.452,2.706-2.913,4.846    c0.453,1.82,2.085,3.031,3.874,3.031c0.321,0,0.649-0.039,0.977-0.121l31.992-7.998    C374.968,115.66,376.273,113.488,375.734,111.348z" fill="#FFFFFF"/>
	</g>
</g>
<g>
	<g>
		<path d="M212.461,120.127c-5.851-0.836-57.705-7.931-74.334,0.383c-1.977,0.988-2.781,3.39-1.789,5.366    c0.703,1.401,2.109,2.21,3.577,2.21c0.602,0,1.211-0.136,1.789-0.422c12.2-6.1,54.401-1.788,69.624,0.383    c2.195,0.343,4.218-1.207,4.53-3.394C216.171,122.466,214.648,120.439,212.461,120.127z" fill="#FFFFFF"/>
	</g>
</g>
<g>
	<g>
		<path d="M116.421,205.044c-2.125-0.219-4.187,1.273-4.468,3.468l-7.998,63.27c-0.281,2.188,1.274,4.187,3.468,4.468    c0.164,0.023,0.336,0.031,0.5,0.031c1.991,0,3.71-1.476,3.968-3.499l7.998-63.27C120.162,207.321,118.616,205.321,116.421,205.044    z" fill="#FFFFFF"/>
	</g>
</g>
<g>
	<g>
		<path d="M104.134,271.509l-8.256-63.016c-0.289-2.191-2.319-3.765-4.483-3.445c-2.187,0.285-3.733,2.293-3.444,4.483l8.256,63.024    c0.266,2.008,1.984,3.476,3.96,3.476c0.172,0,0.351-0.008,0.523-0.031C102.884,275.711,104.423,273.704,104.134,271.509z" fill="#FFFFFF"/>
	</g>
</g>
<g>
	<g>
		<path d="M90.114,275.204l-39.084-50.39c-1.351-1.742-3.858-2.066-5.608-0.707c-1.742,1.354-2.062,3.866-0.711,5.611l39.085,50.39    c0.789,1.016,1.968,1.547,3.163,1.547c0.859,0,1.719-0.273,2.452-0.835C91.153,279.461,91.473,276.954,90.114,275.204z" fill="#FFFFFF"/>
	</g>
</g>
<g>
	<g>
		<path d="M83.742,279.781l-50.395-38.713c-1.757-1.347-4.257-1.007-5.608,0.734c-1.351,1.754-1.015,4.264,0.734,5.608    l50.394,38.713c0.726,0.554,1.586,0.827,2.429,0.827c1.203,0,2.39-0.539,3.18-1.561C85.82,283.639,85.492,281.125,83.742,279.781z    " fill="#FFFFFF"/>
	</g>
</g>
<g>
	<g>
		<path d="M76.431,292.308l-63.267-7.998c-2.14-0.273-4.195,1.274-4.468,3.468c-0.281,2.188,1.274,4.187,3.468,4.468l63.267,7.998    c0.164,0.023,0.336,0.031,0.5,0.031c1.991,0,3.71-1.475,3.968-3.499C80.172,294.588,78.625,292.589,76.431,292.308z" fill="#FFFFFF"/>
	</g>
</g>
<g>
	<g>
		<path d="M79.64,303.5c-0.281-2.186-2.319-3.749-4.483-3.444l-63.001,8.264c-2.186,0.289-3.733,2.297-3.444,4.491    c0.266,2.008,1.984,3.476,3.96,3.476c0.172,0,0.351-0.008,0.523-0.032l63.001-8.264C78.39,307.703,79.929,305.695,79.64,303.5z" fill="#FFFFFF"/>
	</g>
</g>
<g>
	<g>
		<path d="M84.459,314.788c-1.351-1.742-3.866-2.063-5.608-0.711l-50.395,39.084c-1.741,1.359-2.061,3.867-0.71,5.616    c0.789,1.016,1.969,1.547,3.164,1.547c0.859,0,1.718-0.273,2.451-0.836l50.395-39.085    C85.498,319.045,85.818,316.537,84.459,314.788z" fill="#FFFFFF"/>
	</g>
</g>
<g>
	<g>
		<path d="M89.037,319.724c-1.75-1.343-4.256-1.007-5.608,0.734l-38.702,50.395c-1.351,1.75-1.016,4.264,0.734,5.608    c0.726,0.554,1.586,0.827,2.429,0.827c1.203,0,2.39-0.538,3.179-1.561l38.702-50.395    C91.115,323.583,90.787,321.068,89.037,319.724z" fill="#FFFFFF"/>
	</g>
</g>
<g>
	<g>
		<path d="M100.425,324.301c-2.117-0.304-4.187,1.273-4.468,3.467l-7.998,63.267c-0.281,2.188,1.273,4.187,3.468,4.468    c0.164,0.023,0.336,0.031,0.5,0.031c1.991,0,3.71-1.476,3.968-3.499l7.998-63.267    C104.166,326.581,102.619,324.581,100.425,324.301z" fill="#FFFFFF"/>
	</g>
</g>
<g>
	<g>
		<path d="M119.896,390.995l-8.264-63.001c-0.289-2.186-2.272-3.74-4.483-3.444c-2.186,0.289-3.733,2.297-3.444,4.491l8.264,63.001    c0.266,2.007,1.984,3.476,3.96,3.476c0.172,0,0.351-0.007,0.523-0.032C118.646,395.197,120.185,393.19,119.896,390.995z" fill="#FFFFFF"/>
	</g>
</g>
<g>
	<g>
		<path d="M180.094,241.77c-1.351-1.742-3.866-2.062-5.608-0.707l-36.179,28.056c-1.742,1.358-2.062,3.866-0.703,5.616    c0.789,1.015,1.968,1.546,3.163,1.546c0.851,0,1.718-0.273,2.445-0.836l36.179-28.063    C181.133,246.031,181.453,243.516,180.094,241.77z" fill="#FFFFFF"/>
	</g>
</g>
<g>
	<g>
		<path d="M199.143,287.756c-0.281-2.194-2.296-3.749-4.483-3.452l-45.177,5.913c-2.187,0.289-3.733,2.295-3.444,4.482    c0.266,2.015,1.983,3.484,3.96,3.484c0.172,0,0.352-0.008,0.523-0.031l45.177-5.913    C197.893,291.95,199.432,289.944,199.143,287.756z" fill="#FFFFFF"/>
	</g>
</g>
<g>
	<g>
		<path d="M163.128,370.837l-39.085-50.395c-1.351-1.741-3.858-2.062-5.608-0.711c-1.741,1.359-2.062,3.867-0.71,5.616    l39.084,50.395c0.789,1.016,1.969,1.546,3.164,1.546c0.859,0,1.718-0.273,2.452-0.835    C164.167,375.094,164.486,372.587,163.128,370.837z" fill="#FFFFFF"/>
	</g>
</g>
<g>
	<g>
		<path d="M179.375,353.131L128.98,314.43c-1.757-1.336-4.264-1.008-5.608,0.734c-1.351,1.749-1.016,4.263,0.734,5.607    l50.395,38.702c0.727,0.555,1.586,0.828,2.429,0.828c1.203,0,2.39-0.539,3.179-1.562    C181.452,356.99,181.124,354.475,179.375,353.131z" fill="#FFFFFF"/>
	</g>
</g>
<g>
	<g>
		<path d="M196.416,308.305l-91.978-11.997c-2.226-0.32-4.202,1.258-4.483,3.452c-0.289,2.187,1.258,4.194,3.452,4.483    l91.979,11.997c0.172,0.023,0.344,0.031,0.516,0.031c1.984,0,3.702-1.467,3.959-3.483    C200.15,310.602,198.603,308.594,196.416,308.305z" fill="#FFFFFF"/>
	</g>
</g>
<g>
	<g>
		<path d="M199.504,329.934c-2.094-0.75-4.367,0.36-5.101,2.438c-4.788,13.519-12.396,25.555-22.612,35.772    c-37.42,37.429-98.312,37.429-135.733,0c-37.421-37.421-37.421-98.306,0-135.737c31.329-31.33,79.645-37.214,117.496-14.31    c1.882,1.133,4.343,0.535,5.491-1.351c1.14-1.89,0.538-4.347-1.352-5.491c-40.998-24.815-93.345-18.442-127.29,15.496    c-40.537,40.548-40.537,106.509,0,147.047c20.268,20.267,46.895,30.406,73.521,30.406c26.626,0,53.253-10.139,73.523-30.405    c11.06-11.069,19.308-24.105,24.494-38.757C202.675,332.956,201.589,330.676,199.504,329.934z" fill="#FFFFFF"/>
	</g>
</g>
<g>
	<g>
		<path d="M420.341,205.044c-2.132-0.219-4.186,1.273-4.467,3.468l-7.998,63.27c-0.281,2.188,1.273,4.187,3.467,4.468    c0.164,0.023,0.336,0.031,0.5,0.031c1.992,0,3.711-1.476,3.969-3.499l7.998-63.27    C424.083,207.321,422.536,205.321,420.341,205.044z" fill="#FFFFFF"/>
	</g>
</g>
<g>
	<g>
		<path d="M404.899,247.5l-5.101-39.006c-0.28-2.187-2.288-3.765-4.483-3.445c-2.186,0.285-3.733,2.293-3.444,4.483l5.101,39.007    c0.266,2.01,1.984,3.479,3.96,3.479c0.171,0,0.351-0.012,0.523-0.035C403.649,251.698,405.188,249.691,404.899,247.5z" fill="#FFFFFF"/>
	</g>
</g>
<g>
	<g>
		<path d="M404.345,324.301c-2.132-0.304-4.187,1.273-4.468,3.467l-7.998,63.267c-0.281,2.188,1.274,4.187,3.468,4.468    c0.164,0.023,0.336,0.031,0.5,0.031c1.992,0,3.711-1.476,3.968-3.499l7.999-63.267    C408.086,326.581,406.54,324.581,404.345,324.301z" fill="#FFFFFF"/>
	</g>
</g>
<g>
	<g>
		<path d="M423.817,390.995l-8.264-63.001c-0.281-2.186-2.296-3.74-4.484-3.444c-2.186,0.289-3.732,2.297-3.443,4.491l8.264,63.001    c0.266,2.007,1.983,3.476,3.959,3.476c0.171,0,0.351-0.007,0.523-0.032C422.567,395.197,424.106,393.19,423.817,390.995z" fill="#FFFFFF"/>
	</g>
</g>
<g>
	<g>
		<path d="M385.662,264.105l-30.571-39.428c-1.351-1.745-3.866-2.069-5.607-0.71c-1.742,1.35-2.063,3.866-0.711,5.607l30.57,39.436    c0.789,1.015,1.969,1.546,3.164,1.546c0.858,0,1.718-0.274,2.444-0.836C386.7,268.362,387.02,265.855,385.662,264.105z" fill="#FFFFFF"/>
	</g>
</g>
<g>
	<g>
		<path d="M387.661,279.789l-50.395-38.721c-1.749-1.347-4.263-1.007-5.607,0.734c-1.352,1.754-1.016,4.26,0.734,5.608    l50.395,38.721c0.726,0.554,1.585,0.827,2.429,0.827c1.202,0,2.389-0.539,3.178-1.561    C389.739,283.647,389.411,281.133,387.661,279.789z" fill="#FFFFFF"/>
	</g>
</g>
<g>
	<g>
		<path d="M467.048,370.845l-39.085-50.387c-1.35-1.741-3.865-2.054-5.607-0.711c-1.742,1.359-2.063,3.867-0.711,5.616    l39.084,50.387c0.789,1.016,1.969,1.546,3.164,1.546c0.86,0,1.719-0.274,2.452-0.835    C468.087,375.102,468.407,372.595,467.048,370.845z" fill="#FFFFFF"/>
	</g>
</g>
<g>
	<g>
		<path d="M483.295,353.139L432.9,314.43c-1.749-1.336-4.256-1.008-5.607,0.734c-1.352,1.749-1.016,4.263,0.733,5.607l50.395,38.71    c0.727,0.555,1.586,0.828,2.43,0.828c1.203,0,2.389-0.54,3.178-1.562C485.372,356.998,485.045,354.483,483.295,353.139z" fill="#FFFFFF"/>
	</g>
</g>
<g>
	<g>
		<path d="M380.366,292.324l-63.266-7.998c-2.117-0.289-4.196,1.274-4.469,3.468c-0.281,2.188,1.274,4.187,3.469,4.468l63.266,7.998    c0.164,0.023,0.336,0.031,0.5,0.031c1.992,0,3.71-1.476,3.968-3.499C384.107,294.604,382.561,292.605,380.366,292.324z" fill="#FFFFFF"/>
	</g>
</g>
<g>
	<g>
		<path d="M383.568,303.508c-0.281-2.186-2.295-3.756-4.483-3.444l-63.008,8.256c-2.187,0.289-3.734,2.297-3.445,4.491    c0.266,2.008,1.984,3.476,3.961,3.476c0.172,0,0.351-0.008,0.522-0.032l63.009-8.256    C382.319,307.711,383.857,305.703,383.568,303.508z" fill="#FFFFFF"/>
	</g>
</g>
<g>
	<g>
		<path d="M499.619,308.32l-63.267-7.998c-2.155-0.289-4.194,1.274-4.467,3.468c-0.281,2.188,1.273,4.187,3.468,4.468l63.267,7.998    c0.164,0.023,0.335,0.031,0.499,0.031c1.992,0,3.71-1.476,3.968-3.499C503.36,310.601,501.814,308.601,499.619,308.32z" fill="#FFFFFF"/>
	</g>
</g>
<g>
	<g>
		<path d="M503.055,287.754c-0.281-2.186-2.311-3.749-4.482-3.444l-63.009,8.264c-2.187,0.289-3.733,2.296-3.444,4.491    c0.266,2.008,1.983,3.476,3.959,3.476c0.172,0,0.352-0.008,0.523-0.032l63.009-8.264    C501.806,291.956,503.344,289.949,503.055,287.754z" fill="#FFFFFF"/>
	</g>
</g>
<g>
	<g>
		<path d="M388.403,314.796c-1.351-1.742-3.858-2.055-5.607-0.711l-50.387,39.076c-1.742,1.359-2.063,3.867-0.711,5.616    c0.789,1.016,1.968,1.547,3.163,1.547c0.86,0,1.719-0.273,2.452-0.836l50.387-39.077    C389.442,319.053,389.762,316.545,388.403,314.796z" fill="#FFFFFF"/>
	</g>
</g>
<g>
	<g>
		<path d="M392.972,319.732c-1.749-1.335-4.256-0.999-5.608,0.734l-38.709,50.387c-1.352,1.75-1.016,4.264,0.734,5.608    c0.727,0.554,1.585,0.827,2.429,0.827c1.203,0,2.39-0.538,3.178-1.561l38.71-50.387    C395.049,323.591,394.721,321.076,392.972,319.732z" fill="#FFFFFF"/>
	</g>
</g>
<g>
	<g>
		<path d="M484.037,241.778c-1.359-1.742-3.858-2.07-5.608-0.707l-50.387,39.076c-1.741,1.359-2.062,3.866-0.71,5.616    c0.788,1.015,1.968,1.546,3.163,1.546c0.859,0,1.719-0.273,2.452-0.836l50.387-39.083    C485.076,246.039,485.395,243.524,484.037,241.778z" fill="#FFFFFF"/>
	</g>
</g>
<g>
	<g>
		<path d="M466.33,224.096c-1.749-1.344-4.256-1.008-5.608,0.734l-38.717,50.405c-1.352,1.75-1.016,4.264,0.734,5.608    c0.727,0.555,1.586,0.828,2.429,0.828c1.203,0,2.391-0.539,3.178-1.562l38.718-50.406    C468.408,227.95,468.08,225.439,466.33,224.096z" fill="#FFFFFF"/>
	</g>
</g>
<g>
	<g>
		<path d="M206.68,284.373c-3.374-21.945-13.488-41.873-29.235-57.623c-1.562-1.562-4.093-1.562-5.655,0s-1.562,4.093,0,5.655    c14.536,14.539,23.87,32.933,26.986,53.186c0.305,1.976,2.007,3.39,3.952,3.39c0.196,0,0.407-0.015,0.609-0.046    C205.524,288.599,207.016,286.56,206.68,284.373z" fill="#FFFFFF"/>
	</g>
</g>
<g>
	<g>
		<path d="M155.912,132.085c-11.17,0-11.959-6.674-11.998-8.045c-0.023-2.187-1.804-3.952-3.999-3.952    c-2.21,0-3.999,1.789-3.999,3.999c0,5.534,4.179,15.996,19.996,15.996c2.21,0,3.999-1.789,3.999-3.999    C159.911,133.874,158.122,132.085,155.912,132.085z" fill="#FFFFFF"/>
	</g>
</g>
<g>
	<g>
		<path d="M211.899,120.088c-1.953,0-3.577,1.398-3.929,3.253c-4.663,4.429-40.366,8.744-52.058,8.744    c-2.21,0-3.999,1.789-3.999,3.999c0,2.21,1.789,3.999,3.999,3.999c0.601,0,59.985-1.694,59.986-15.996    C215.898,121.877,214.109,120.088,211.899,120.088z" fill="#FFFFFF"/>
	</g>
</g>
<g>
	<g>
		<path d="M187.904,172.302h-6.335c-2.21,0-3.999,1.789-3.999,3.999c0,2.211,1.789,3.999,3.999,3.999h6.335    c2.21,0,3.999-1.788,3.999-3.999C191.903,174.091,190.114,172.302,187.904,172.302z" fill="#FFFFFF"/>
	</g>
</g>
<g>
	<g>
		<path d="M231.917,296.276c-8.818,0-15.996,7.178-15.996,15.996s7.178,15.996,15.996,15.996c8.826,0,15.996-7.178,15.996-15.996    S240.743,296.276,231.917,296.276z M231.917,320.27c-4.405,0-7.998-3.585-7.998-7.998c0-4.413,3.593-7.998,7.998-7.998    c4.413,0,7.998,3.585,7.998,7.998C239.915,316.685,236.33,320.27,231.917,320.27z" fill="#FFFFFF"/>
	</g>
</g>
<g>
	<g>
		<path d="M270.852,349.593l-35.96-39.99c-1.483-1.664-4.014-1.782-5.646-0.305c-1.641,1.476-1.781,4.006-0.297,5.647l35.96,39.99    c0.789,0.883,1.883,1.328,2.976,1.328c0.953,0,1.906-0.336,2.671-1.023C272.196,353.764,272.336,351.234,270.852,349.593z" fill="#FFFFFF"/>
	</g>
</g>
<g>
	<g>
		<path d="M279.882,348.265h-27.993c-2.21,0-3.999,1.788-3.999,3.998c0,2.211,1.789,4,3.999,4h27.993c2.211,0,4-1.789,4-4    C283.882,350.053,282.093,348.265,279.882,348.265z" fill="#FFFFFF"/>
	</g>
</g>
<g>
	<g>
		<path d="M384.56,111.337c-1.945-2.141-6.327-5.351-13.966-2.812c-2.092,0.695-3.225,2.96-2.53,5.057    c0.696,2.093,2.945,3.226,5.062,2.527c3.812-1.258,5.1,0.144,5.514,0.609c1.89,2.074,2.101,6.737,0.484,10.396    c-0.86,1.941-2.945,5.198-7.264,5.198c-2.21,0-3.999,1.789-3.999,3.999c0,2.21,1.789,3.999,3.999,3.999    c6.373,0,11.825-3.726,14.582-9.962C389.411,123.635,388.637,115.816,384.56,111.337z" fill="#FFFFFF"/>
	</g>
</g>
<g>
	<g>
		<path d="M231.917,280.296c-17.637,0-31.992,14.348-31.992,31.992c0,17.644,14.355,31.992,31.992,31.992    c17.644,0,31.992-14.348,31.992-31.992C263.909,294.644,249.562,280.296,231.917,280.296z M231.917,336.282    c-13.231,0-23.994-10.763-23.994-23.994c0-13.23,10.763-23.994,23.994-23.994c13.231,0,23.994,10.764,23.994,23.994    C255.911,325.519,245.148,336.282,231.917,336.282z" fill="#FFFFFF"/>
	</g>
</g>
<g>
</g>
<g>
</g>
<g>
</g>
<g>
</g>
<g>
</g>
<g>
</g>
<g>
</g>
<g>
</g>
<g>
</g>
<g>
</g>
<g>
</g>
<g>
</g>
<g>
</g>
<g>
</g>
<g>
</g>
</svg>
